<?xml version="1.0" encoding="UTF-8" standalone="no"?>
<svg
   xmlns:dc="http://purl.org/dc/elements/1.1/"
   xmlns:cc="http://creativecommons.org/ns#"
   xmlns:rdf="http://www.w3.org/1999/02/22-rdf-syntax-ns#"
   xmlns:svg="http://www.w3.org/2000/svg"
   xmlns="http://www.w3.org/2000/svg"
   xmlns:xlink="http://www.w3.org/1999/xlink"
   xmlns:sodipodi="http://sodipodi.sourceforge.net/DTD/sodipodi-0.dtd"
   xmlns:inkscape="http://www.inkscape.org/namespaces/inkscape"
   inkscape:version="1.1-dev (c990a67cce, 2020-04-09)"
   sodipodi:docname="logo.svg"
   id="svg8"
   version="1.1"
   viewBox="0 0 100 100"
   height="100mm"
   width="100mm">
  <defs
     id="defs2">
    <linearGradient
       inkscape:collect="always"
       id="linearGradient1281">
      <stop
         style="stop-color:#1a5fb4;stop-opacity:1"
         offset="0"
         id="stop1277" />
      <stop
         style="stop-color:#99c1f1;stop-opacity:0"
         offset="1"
         id="stop1279" />
    </linearGradient>
    <linearGradient
       id="linearGradient1182"
       inkscape:collect="always">
      <stop
         id="stop1178"
         offset="0"
         style="stop-color:#0c4836;stop-opacity:1" />
      <stop
         id="stop1180"
         offset="1"
         style="stop-color:#20c997;stop-opacity:1" />
    </linearGradient>
    <linearGradient
       id="linearGradient1169"
       inkscape:collect="always">
      <stop
         id="stop1165"
         offset="0"
         style="stop-color:#003399;stop-opacity:1" />
      <stop
         id="stop1167"
         offset="1"
         style="stop-color:#6699ff;stop-opacity:1" />
    </linearGradient>
    <linearGradient
       id="linearGradient1123"
       inkscape:collect="always">
      <stop
         id="stop1119"
         offset="0"
         style="stop-color:#404040;stop-opacity:1" />
      <stop
         style="stop-color:#000000;stop-opacity:1"
         offset="0.5"
         id="stop1127" />
      <stop
         id="stop1121"
         offset="1"
         style="stop-color:#a7d1cc;stop-opacity:0;" />
    </linearGradient>
    <linearGradient
       id="linearGradient1085"
       inkscape:collect="always">
      <stop
         id="stop1081"
         offset="0"
         style="stop-color:#3366cc;stop-opacity:1" />
      <stop
         id="stop1083"
         offset="1"
         style="stop-color:#6699ff;stop-opacity:1" />
    </linearGradient>
    <marker
       inkscape:isstock="true"
       style="overflow:visible"
       id="Arrow2Send"
       refX="0"
       refY="0"
       orient="auto"
       inkscape:stockid="Arrow2Send">
      <path
         inkscape:connector-curvature="0"
         transform="matrix(-0.3,0,0,-0.3,0.69,0)"
         d="M 8.7185878,4.0337352 -2.2072895,0.01601326 8.7185884,-4.0017078 c -1.7454984,2.3720609 -1.7354408,5.6174519 -6e-7,8.035443 z"
         style="fill:#6699ff;fill-opacity:1;fill-rule:evenodd;stroke:#6699ff;stroke-width:0.625;stroke-linejoin:round;stroke-opacity:1"
         id="path4858" />
    </marker>
    <marker
       inkscape:isstock="true"
       style="overflow:visible"
       id="Arrow1Send"
       refX="0"
       refY="0"
       orient="auto"
       inkscape:stockid="Arrow1Send">
      <path
         inkscape:connector-curvature="0"
         transform="matrix(-0.2,0,0,-0.2,-1.2,0)"
         style="fill:#6699ff;fill-opacity:1;fill-rule:evenodd;stroke:#6699ff;stroke-width:1.00000003pt;stroke-opacity:1"
         d="M 0,0 5,-5 -12.5,0 5,5 Z"
         id="path4840" />
    </marker>
    <marker
       inkscape:isstock="true"
       style="overflow:visible"
       id="Arrow1Lstart"
       refX="0"
       refY="0"
       orient="auto"
       inkscape:stockid="Arrow1Lstart">
      <path
         inkscape:connector-curvature="0"
         transform="matrix(0.8,0,0,0.8,10,0)"
         style="fill:#6699ff;fill-opacity:1;fill-rule:evenodd;stroke:#6699ff;stroke-width:1.00000003pt;stroke-opacity:1"
         d="M 0,0 5,-5 -12.5,0 5,5 Z"
         id="path4825" />
    </marker>
    <linearGradient
       spreadMethod="pad"
       gradientUnits="userSpaceOnUse"
       y2="84.92894"
       x2="50"
       y1="304.58786"
       x1="50"
       id="linearGradient1087"
       xlink:href="#linearGradient1085"
       inkscape:collect="always" />
    <linearGradient
       gradientUnits="userSpaceOnUse"
       y2="293.71259"
       x2="50"
       y1="214.23869"
       x1="49.998711"
       id="linearGradient1125"
       xlink:href="#linearGradient1123"
       inkscape:collect="always" />
    <linearGradient
       gradientTransform="translate(-203.82301,58.997941)"
       spreadMethod="pad"
       y2="84.92894"
       x2="50"
       y1="304.58786"
       x1="50"
       gradientUnits="userSpaceOnUse"
       id="linearGradient1153"
       xlink:href="#linearGradient1085"
       inkscape:collect="always" />
    <linearGradient
       gradientTransform="matrix(1.0743201,0,0,1.0743201,-3.7159699,-18.496817)"
       gradientUnits="userSpaceOnUse"
       y2="200.54916"
       x2="49.9986"
       y1="293.71094"
       x1="49.999966"
       id="linearGradient1171"
       xlink:href="#linearGradient1169"
       inkscape:collect="always" />
    <linearGradient
       gradientUnits="userSpaceOnUse"
       y2="100"
       x2="50"
       y1="17.238701"
       x1="49.998711"
       id="linearGradient1184"
       xlink:href="#linearGradient1182"
       inkscape:collect="always" />
    <linearGradient
       spreadMethod="pad"
       y2="84.92894"
       x2="50"
       y1="304.58786"
       x1="50"
       gradientTransform="translate(-203.82301,58.997941)"
       gradientUnits="userSpaceOnUse"
       id="linearGradient1270"
       xlink:href="#linearGradient1085"
       inkscape:collect="always" />
    <linearGradient
       spreadMethod="pad"
       y2="293.76859"
       x2="49.999897"
       y1="214.23863"
       x1="49.999928"
       gradientTransform="matrix(1.0674702,0,0,0.99999699,40.618726,0.45102636)"
       gradientUnits="userSpaceOnUse"
       id="linearGradient1272"
       xlink:href="#linearGradient1281"
       inkscape:collect="always" />
  </defs>
  <sodipodi:namedview
     inkscape:lockguides="false"
     inkscape:snap-grids="false"
     inkscape:snap-nodes="false"
     inkscape:snap-page="true"
     inkscape:snap-center="false"
     inkscape:snap-object-midpoints="true"
     inkscape:snap-midpoints="true"
     inkscape:snap-smooth-nodes="true"
     inkscape:snap-intersection-paths="true"
     inkscape:object-paths="true"
     inkscape:snap-bbox-midpoints="true"
     inkscape:snap-bbox-edge-midpoints="true"
     inkscape:bbox-nodes="true"
     inkscape:bbox-paths="false"
     inkscape:snap-bbox="true"
     inkscape:snap-global="true"
     inkscape:guide-bbox="true"
     showguides="true"
     inkscape:pagecheckerboard="true"
     inkscape:window-maximized="1"
     inkscape:window-y="0"
     inkscape:window-x="0"
     inkscape:window-height="1029"
     inkscape:window-width="1920"
     showgrid="false"
     inkscape:current-layer="layer3"
     inkscape:document-units="mm"
     inkscape:cy="144.6945"
     inkscape:cx="221.93771"
     inkscape:zoom="1.4142136"
     inkscape:pageshadow="2"
     inkscape:pageopacity="0.0"
     borderopacity="1.0"
     bordercolor="#666666"
     pagecolor="#ffffff"
     id="base">
    <sodipodi:guide
       inkscape:color="rgb(0,0,255)"
       inkscape:label=""
       inkscape:locked="false"
       id="guide5173"
       orientation="0,1"
       position="-48.759,50" />
    <sodipodi:guide
       inkscape:color="rgb(0,0,255)"
       inkscape:label=""
       inkscape:locked="false"
       id="guide5177"
       orientation="1,0"
       position="50,-50" />
  </sodipodi:namedview>
  <metadata
     id="metadata5">
    <rdf:RDF>
      <cc:Work
         rdf:about="">
        <dc:format>image/svg+xml</dc:format>
        <dc:type
           rdf:resource="http://purl.org/dc/dcmitype/StillImage" />
        <dc:title></dc:title>
      </cc:Work>
    </rdf:RDF>
  </metadata>
  <g
     sodipodi:insensitive="true"
     style="display:inline"
     inkscape:label="Background"
     id="layer2"
     inkscape:groupmode="layer">
    <g
       transform="translate(-43.99216,-197.50778)"
       id="g1004"
       style="display:inline">
      <path
         id="path63"
         d="m 49.693159,294.16101 h 28.59947 c 4.17385,0 7.558908,-3.12351 7.558908,-6.9748 V 272.2726 c 0,-2.69623 -1.684415,-5.15092 -4.325298,-6.3041 -10.153896,-4.43461 -16.715287,-13.99327 -16.715287,-24.35189 0,-14.84768 13.088421,-26.9276 29.179865,-26.9276 16.091443,0 29.182653,12.07992 29.182653,26.9276 0,10.35827 -6.56144,19.91728 -16.71529,24.35189 -2.64046,1.15352 -4.32521,3.60821 -4.3252,6.3041 v 14.91361 c 0,3.85129 3.38502,6.9748 7.55881,6.9748 h 28.59937"
         style="color:#000000;font-style:normal;font-variant:normal;font-weight:normal;font-stretch:normal;font-size:medium;line-height:normal;font-family:sans-serif;font-variant-ligatures:normal;font-variant-position:normal;font-variant-caps:normal;font-variant-numeric:normal;font-variant-alternates:normal;font-feature-settings:normal;text-indent:0;text-align:start;text-decoration:none;text-decoration-line:none;text-decoration-style:solid;text-decoration-color:#000000;letter-spacing:normal;word-spacing:normal;text-transform:none;writing-mode:lr-tb;direction:ltr;text-orientation:mixed;dominant-baseline:auto;baseline-shift:baseline;text-anchor:start;white-space:normal;shape-padding:0;clip-rule:nonzero;display:inline;overflow:visible;visibility:visible;opacity:1;isolation:auto;mix-blend-mode:normal;color-interpolation:sRGB;color-interpolation-filters:linearRGB;solid-color:#000000;solid-opacity:1;vector-effect:none;fill:url(#linearGradient1272);fill-opacity:1;fill-rule:nonzero;stroke:none;stroke-width:4.75267;stroke-linecap:round;stroke-linejoin:round;stroke-miterlimit:4;stroke-dasharray:none;stroke-dashoffset:0;stroke-opacity:1;color-rendering:auto;image-rendering:auto;shape-rendering:auto;text-rendering:auto;enable-background:accumulate" />
    </g>
  </g>
  <g
     style="display:inline"
     transform="translate(0,-197)"
     id="layer1"
     inkscape:groupmode="layer"
     inkscape:label="Omega">
    <path
       sodipodi:nodetypes="ssccccssssssccsscssssssccccsss"
       inkscape:connector-curvature="0"
       id="path3837"
       d="m 49.998571,196.95719 c 24.505459,0 44.442876,19.63574 44.442876,43.7729 0,8.44982 -2.453027,16.65568 -7.090062,23.72617 -3.61946,5.51904 -8.420822,10.13903 -14.052141,13.55627 l -0.0333,0.019 v 4.30689 h 12.863452 c 4.12367,0 7.465452,3.28895 7.465452,7.35071 0,4.06176 -3.341782,7.3535 -7.465452,7.3535 H 65.800383 c -4.123672,0 -7.465571,-3.29174 -7.465571,-7.3535 V 273.6672 c 0,-2.84237 1.664422,-5.43041 4.272389,-6.64662 10.269159,-4.78756 16.903226,-15.10503 16.903205,-26.28785 0,-16.02727 -13.239774,-29.06866 -29.511749,-29.06866 -16.271965,0 -29.508977,13.04139 -29.508977,29.06866 0,11.1832 6.634067,21.50029 16.903215,26.28785 2.608353,1.21584 4.269596,3.80388 4.269596,6.64662 v 16.02202 c 0,4.06175 -3.339105,7.3535 -7.462766,7.3535 H 13.868466 c -4.1236708,0 -7.4633026,-3.29175 -7.4633026,-7.3535 0,-4.06176 3.3396318,-7.35072 7.4633026,-7.35072 h 12.865593 v -4.30687 l -0.03341,-0.019 c -5.630929,-3.4173 -10.432688,-8.0373 -14.052148,-13.55632 -4.6374104,-7.07088 -7.0900515,-15.27361 -7.0900515,-23.72346 0,-24.1375 19.9346445,-43.77562 44.4400955,-43.77562 z"
       style="color:#000000;font-style:normal;font-variant:normal;font-weight:normal;font-stretch:normal;font-size:medium;line-height:normal;font-family:sans-serif;font-variant-ligatures:normal;font-variant-position:normal;font-variant-caps:normal;font-variant-numeric:normal;font-variant-alternates:normal;font-feature-settings:normal;text-indent:0;text-align:start;text-decoration:none;text-decoration-line:none;text-decoration-style:solid;text-decoration-color:#000000;letter-spacing:normal;word-spacing:normal;text-transform:none;writing-mode:lr-tb;direction:ltr;text-orientation:mixed;dominant-baseline:auto;baseline-shift:baseline;text-anchor:start;white-space:normal;shape-padding:0;clip-rule:nonzero;display:inline;overflow:visible;visibility:visible;opacity:1;isolation:auto;mix-blend-mode:normal;color-interpolation:sRGB;color-interpolation-filters:linearRGB;solid-color:#000000;solid-opacity:1;vector-effect:none;fill:url(#linearGradient1171);fill-opacity:1;fill-rule:nonzero;stroke:none;stroke-width:0.107431;stroke-linecap:butt;stroke-linejoin:miter;stroke-miterlimit:4;stroke-dasharray:none;stroke-dashoffset:0;stroke-opacity:1;color-rendering:auto;image-rendering:auto;shape-rendering:auto;text-rendering:auto;enable-background:accumulate" />
    <g
       transform="matrix(0.26458333,0,0,0.26458333,69.045089,59.219667)"
       id="g3839" />
    <g
       transform="matrix(0.26458333,0,0,0.26458333,69.045089,59.219667)"
       id="g3841" />
    <g
       transform="matrix(0.26458333,0,0,0.26458333,69.045089,59.219667)"
       id="g3843" />
    <g
       transform="matrix(0.26458333,0,0,0.26458333,69.045089,59.219667)"
       id="g3845" />
    <g
       transform="matrix(0.26458333,0,0,0.26458333,69.045089,59.219667)"
       id="g3847" />
    <g
       transform="matrix(0.26458333,0,0,0.26458333,69.045089,59.219667)"
       id="g3849" />
    <g
       transform="matrix(0.26458333,0,0,0.26458333,69.045089,59.219667)"
       id="g3851" />
    <g
       transform="matrix(0.26458333,0,0,0.26458333,69.045089,59.219667)"
       id="g3853" />
    <g
       transform="matrix(0.26458333,0,0,0.26458333,69.045089,59.219667)"
       id="g3855" />
    <g
       transform="matrix(0.26458333,0,0,0.26458333,69.045089,59.219667)"
       id="g3857" />
    <g
       transform="matrix(0.26458333,0,0,0.26458333,69.045089,59.219667)"
       id="g3859" />
    <g
       transform="matrix(0.26458333,0,0,0.26458333,69.045089,59.219667)"
       id="g3861" />
    <g
       transform="matrix(0.26458333,0,0,0.26458333,69.045089,59.219667)"
       id="g3863" />
    <g
       transform="matrix(0.26458333,0,0,0.26458333,69.045089,59.219667)"
       id="g3865" />
    <g
       transform="matrix(0.26458333,0,0,0.26458333,69.045089,59.219667)"
       id="g3867" />
    <path
       style="stroke-width:0.264583"
       inkscape:transform-center-y="5.1382363"
       d="m 194.3859,238.52116 -8.89969,-15.41471 -8.89969,-15.41471 17.79938,0 17.79937,0 -8.89969,15.41471 z"
       inkscape:randomized="0"
       inkscape:rounded="0"
       inkscape:flatsided="false"
       sodipodi:arg2="2.6179939"
       sodipodi:arg1="1.5707963"
       sodipodi:r2="10.276474"
       sodipodi:r1="20.552948"
       sodipodi:cy="217.96822"
       sodipodi:cx="194.38589"
       sodipodi:sides="3"
       id="path56"
       sodipodi:type="star" />
    <path
       style="fill:none;stroke:#000000;stroke-width:0.34334px;stroke-linecap:butt;stroke-linejoin:miter;stroke-opacity:1"
       d="M 28.276092,234.67874 Z"
       id="path66"
       inkscape:connector-curvature="0" />
  </g>
  <g
     style="display:inline"
     inkscape:label="Middle"
     id="layer3"
     inkscape:groupmode="layer">
    <g
       id="g76"
       transform="matrix(1.2178305,0,0,1.2178305,221.90378,-241.25878)"
       style="display:inline">
      <g
         id="g74">
        <g
           transform="translate(106.08762,28.903789)"
           id="g984">
          <g
             id="g991" />
        </g>
        <g
           id="g1176">
          <path
             sodipodi:nodetypes="cccccccc"
             style="fill:none;fill-opacity:1;stroke:#3366cc;stroke-width:4.32488;stroke-linecap:round;stroke-linejoin:round;stroke-miterlimit:4;stroke-dasharray:none;stroke-opacity:1"
             inkscape:connector-curvature="0"
             d="m 32.200899,236.724 h 6.932011 c 0,-6.43359 7.244731,-6.43359 7.244731,0 0,-6.43359 7.244722,-6.43359 7.244722,0 0,-6.43359 7.244729,-6.43359 7.244729,0 h 7.244727 L 50,267.86188 Z"
             id="path968" />
          <rect
             ry="1"
             transform="rotate(60)"
             y="86.052437"
             x="230.04231"
             height="9"
             width="18"
             id="rect1036"
             style="fill:#3366cc;fill-opacity:1;stroke:none;stroke-width:3.8149;stroke-linecap:round;stroke-linejoin:round;stroke-miterlimit:4;stroke-dasharray:none;stroke-opacity:1" />
          <rect
             style="fill:#3366cc;fill-opacity:1;stroke:none;stroke-width:3.8149;stroke-linecap:round;stroke-linejoin:round;stroke-miterlimit:4;stroke-dasharray:none;stroke-opacity:1"
             id="rect1038"
             width="18"
             height="9"
             x="179.96414"
             y="-181.79039"
             transform="rotate(120)"
             ry="1" />
        </g>
      </g>
    </g>
    <g
       transform="matrix(1.2078939,0,0,1.2078939,58.735325,-145.44128)"
       id="g1048" />
    <path
       sodipodi:nodetypes="sccccccccccccccccccccscscsscscscscsccccscscccccccccccccs"
       d="m 36.191082,12.44844 c -4.650585,0 -8.675689,3.670355 -10.115873,9.000745 h -9.577067 c -3.098688,4.17e-4 -5.04039,3.34882 -3.501798,6.038556 l 8.279959,14.485354 -2.223849,1.28353 c -0.895155,0.516822 -1.200098,1.653577 -0.683277,2.548731 L 33.295133,71.65819 c 0.516821,0.895127 1.653564,1.199274 2.548722,0.68244 l 2.097726,-1.210864 8.263198,14.455767 c 1.543154,2.696143 5.426411,2.710327 6.98923,0.02569 l 8.461158,-14.545188 2.208675,1.274749 c 0.895163,0.516808 2.031904,0.21266 2.548727,-0.68247 L 81.338525,45.805376 c 0.51682,-0.89514 0.212678,-2.031921 -0.682479,-2.54873 l -2.114492,-1.220448 8.44838,-14.522868 c 1.564879,-2.689878 -0.375473,-6.063846 -3.487428,-6.064117 H 73.33874 c -1.440176,-5.330379 -5.461294,-9.000734 -10.111876,-9.000734 -2.547771,0 -4.871259,1.214564 -6.760141,3.065148 -1.888886,-1.850584 -4.212374,-3.065148 -6.760143,-3.065148 -2.547775,0 -4.867269,1.214564 -6.756152,3.065148 -1.889135,-1.851545 -4.210849,-3.065148 -6.759346,-3.065148 z m 0,8.068438 c 0.990658,0 2.721934,0.48316 2.721934,4.970511 0.0083,2.223108 1.812702,4.020931 4.035813,4.020931 2.223111,0 4.027592,-1.797823 4.03581,-4.020931 0,-4.487377 1.73129,-4.970511 2.721941,-4.970511 0.990651,0 2.725927,0.483134 2.725927,4.970511 0.04435,2.196311 1.837463,3.95361 4.034216,3.95361 2.196748,0 3.989873,-1.757299 4.034213,-3.95361 0,-4.487351 1.735268,-4.970511 2.725928,-4.970511 0.99066,0 2.721939,0.48316 2.721939,4.970511 8.16e-4,2.227547 1.806677,4.032962 4.03421,4.033429 h 6.504716 l -4.933016,8.481107 -2.209479,-1.275562 C 68.450077,36.209553 67.313335,36.5137 66.796515,37.408856 L 51.869761,63.262451 c -0.516823,0.895196 -0.211881,2.031146 0.683274,2.547953 l 2.114492,1.221271 -4.927423,8.47073 -4.807692,-8.408466 2.222248,-1.282758 c 0.89516,-0.516818 1.200099,-1.653574 0.683281,-2.54873 L 37.198437,44.834704 32.911189,37.408856 C 32.394366,36.5137 31.257621,36.209553 30.362464,36.726363 l -2.098528,1.211732 -4.81248,-8.417277 h 5.979481 c 2.229097,0.0013 4.037311,-1.804312 4.038205,-4.033429 0,-4.487351 1.731275,-4.970511 2.72194,-4.970511 z"
       style="color:#000000;fill:#99c1f1;stroke:#000000;stroke-width:5.028;stroke-linecap:round;stroke-linejoin:round;stroke-miterlimit:4;stroke-dasharray:none;stroke-opacity:1"
       id="path1222" />
    <g
       id="g1054"
       transform="matrix(1.2078939,0,0,1.2078939,203.31349,-173.65874)">
      <g
         id="g1052" />
    </g>
    <path
       id="path1301"
       d="M 42.240435,49.271421 C 37.190952,40.486559 34.504407,35.965417 34.06959,35.52083 c -1.132666,-1.158117 -3.108349,-1.503228 -4.496419,-0.785427 -0.279225,0.14439 -0.525504,0.239457 -0.547294,0.211256 -0.0218,-0.0282 -0.441537,-0.763981 -0.932773,-1.635069 l -0.893153,-1.583796 1.858171,-0.09268 c 2.037858,-0.101637 2.820271,-0.335042 4.065639,-1.212858 1.518307,-1.0702 2.280117,-2.649181 2.468264,-5.11589 0.07005,-0.918518 0.232248,-1.91631 0.360422,-2.217315 l 0.233046,-0.54728 0.255828,0.588837 c 0.140707,0.323859 0.257262,0.929661 0.259014,1.346225 0.01629,3.876609 1.970086,6.488939 5.276768,7.055349 2.619553,0.448714 5.282641,-0.913529 6.459596,-3.304264 0.424136,-0.861541 0.53433,-1.332621 0.693364,-2.96411 0.103992,-1.066871 0.283572,-2.11578 0.399057,-2.330902 l 0.209973,-0.391135 0.212946,0.520438 c 0.117115,0.286241 0.275334,1.296601 0.351592,2.245246 0.167757,2.086967 0.574321,3.096777 1.745293,4.334904 2.975261,3.145901 8.147176,2.269811 10.002209,-1.694307 0.369366,-0.789314 0.489862,-1.331621 0.604558,-2.720899 0.145359,-1.760659 0.377034,-2.695233 0.629457,-2.539225 0.2304,0.142394 0.494917,1.438357 0.494917,2.424775 0,2.671241 1.348869,4.878737 3.64273,5.961512 0.954322,0.450471 1.18265,0.49051 3.127996,0.548509 1.154192,0.03441 2.098531,0.09972 2.098531,0.145113 0,0.04541 -0.409806,0.788946 -0.910681,1.65232 -0.640314,1.103726 -0.981216,1.547077 -1.148255,1.493313 -0.130662,-0.04204 -0.522654,-0.184922 -0.871087,-0.317487 -1.316324,-0.500807 -3.038278,-0.147031 -4.007811,0.8234 -0.364296,0.364629 -3.454939,5.561867 -8.187421,13.767982 -4.181219,7.250235 -7.637856,13.180001 -7.681409,13.177259 -0.04354,-0.0028 -3.464554,-5.894688 -7.602223,-13.09321 z"
       style="opacity:1;fill:#0000f1;fill-opacity:0;stroke:#3584e4;stroke-width:2.19386;stroke-linecap:round;stroke-linejoin:round;stroke-miterlimit:4;stroke-dasharray:none;stroke-opacity:0" />
    <path
       id="path1307"
       d="M 49.638607,62.036177 C 49.509185,61.830124 46.074828,55.888602 42.006699,48.832793 37.938568,41.776982 34.42043,35.801523 34.188614,35.553994 c -0.979017,-1.045362 -2.788785,-1.476448 -4.143407,-0.986958 -0.391988,0.141646 -0.776805,0.273468 -0.855148,0.292943 -0.07834,0.01948 -0.555827,-0.677301 -1.061086,-1.548389 l -0.918652,-1.583796 1.852988,-0.09565 c 2.004445,-0.103462 2.791455,-0.321305 3.889094,-1.076498 1.728557,-1.189282 2.431116,-2.567398 2.644692,-5.187751 0.0802,-0.984067 0.241296,-2.022519 0.357965,-2.30767 l 0.212138,-0.518456 0.202181,0.376575 c 0.111199,0.207117 0.269392,1.158735 0.351539,2.114707 0.224674,2.614632 0.678477,3.694453 2.103961,5.006344 0.410748,0.378016 1.151289,0.875624 1.645643,1.105794 0.774753,0.360723 1.106523,0.418193 2.403434,0.416322 1.899808,-0.0028 2.951836,-0.386207 4.20719,-1.533528 1.352601,-1.2362 1.797219,-2.260231 2.057072,-4.7378 0.11681,-1.113702 0.299792,-2.187702 0.406627,-2.386664 l 0.194248,-0.36175 0.202464,0.494753 c 0.111354,0.272115 0.270632,1.288044 0.353944,2.257619 0.122747,1.428456 0.242452,1.957262 0.631026,2.787627 1.151202,2.460061 3.800878,3.833827 6.542848,3.392243 1.378213,-0.221953 2.300511,-0.710311 3.394527,-1.797403 1.229823,-1.222042 1.618816,-2.200039 1.809837,-4.550286 0.07593,-0.934128 0.23552,-1.884455 0.354659,-2.111839 l 0.216616,-0.413424 0.199284,0.43738 c 0.109606,0.240561 0.262854,1.189374 0.340557,2.108479 0.154849,1.831709 0.266984,2.317635 0.752162,3.259406 0.592895,1.150858 1.415269,1.935634 2.687612,2.564735 1.189377,0.588079 1.246439,0.599295 3.325372,0.653672 1.163375,0.03044 2.093834,0.113798 2.06768,0.18526 -0.02616,0.07146 -0.439537,0.814565 -0.918636,1.651338 -0.607809,1.061573 -0.942891,1.499407 -1.108659,1.448626 -0.130662,-0.04003 -0.558285,-0.191506 -0.950276,-0.33662 -1.456763,-0.53929 -3.41258,0.01827 -4.336562,1.236256 -0.2917,0.384519 -11.315948,19.379447 -14.94558,25.751438 l -0.48405,0.849773 z"
       style="opacity:1;fill:#0000f1;fill-opacity:0;stroke:#3584e4;stroke-width:2.19386;stroke-linecap:round;stroke-linejoin:round;stroke-miterlimit:4;stroke-dasharray:none;stroke-opacity:0" />
    <path
       id="path1309"
       d="M 49.638607,62.036177 C 49.509185,61.830124 46.074828,55.888602 42.006699,48.832793 37.938568,41.776982 34.42043,35.801523 34.188614,35.553994 c -0.979017,-1.045362 -2.788785,-1.476448 -4.143407,-0.986958 -0.391988,0.141646 -0.776805,0.273468 -0.855148,0.292943 -0.07834,0.01948 -0.555827,-0.677301 -1.061086,-1.548389 l -0.918652,-1.583796 1.852988,-0.09565 c 2.004445,-0.103462 2.791455,-0.321305 3.889094,-1.076498 1.728557,-1.189282 2.431116,-2.567398 2.644692,-5.187751 0.0802,-0.984067 0.241296,-2.022519 0.357965,-2.30767 l 0.212138,-0.518456 0.202181,0.376575 c 0.111199,0.207117 0.269392,1.158735 0.351539,2.114707 0.224674,2.614632 0.678477,3.694453 2.103961,5.006344 0.410748,0.378016 1.151289,0.875624 1.645643,1.105794 0.774753,0.360723 1.106523,0.418193 2.403434,0.416322 1.899808,-0.0028 2.951836,-0.386207 4.20719,-1.533528 1.352601,-1.2362 1.797219,-2.260231 2.057072,-4.7378 0.11681,-1.113702 0.299792,-2.187702 0.406627,-2.386664 l 0.194248,-0.36175 0.202464,0.494753 c 0.111354,0.272115 0.270632,1.288044 0.353944,2.257619 0.122747,1.428456 0.242452,1.957262 0.631026,2.787627 1.151202,2.460061 3.800878,3.833827 6.542848,3.392243 1.378213,-0.221953 2.300511,-0.710311 3.394527,-1.797403 1.229823,-1.222042 1.618816,-2.200039 1.809837,-4.550286 0.07593,-0.934128 0.23552,-1.884455 0.354659,-2.111839 l 0.216616,-0.413424 0.199284,0.43738 c 0.109606,0.240561 0.262854,1.189374 0.340557,2.108479 0.154849,1.831709 0.266984,2.317635 0.752162,3.259406 0.592895,1.150858 1.415269,1.935634 2.687612,2.564735 1.189377,0.588079 1.246439,0.599295 3.325372,0.653672 1.163375,0.03044 2.093834,0.113798 2.06768,0.18526 -0.02616,0.07146 -0.439537,0.814565 -0.918636,1.651338 -0.607809,1.061573 -0.942891,1.499407 -1.108659,1.448626 -0.130662,-0.04003 -0.558285,-0.191506 -0.950276,-0.33662 -1.456763,-0.53929 -3.41258,0.01827 -4.336562,1.236256 -0.2917,0.384519 -11.315948,19.379447 -14.94558,25.751438 l -0.48405,0.849773 z"
       style="opacity:1;fill:#0000f1;fill-opacity:0;stroke:#3584e4;stroke-width:2.19386;stroke-linecap:round;stroke-linejoin:round;stroke-miterlimit:4;stroke-dasharray:none;stroke-opacity:0" />
    <path
       id="path1313"
       d="m 49.751734,62.404169 c -0.174216,-0.365332 -14.93419,-25.914011 -15.196207,-26.30377 -0.473818,-0.704819 -1.21421,-1.255995 -2.060779,-1.53411 -0.381791,-0.125429 -0.55136,-0.147872 -1.147909,-0.15194 -0.81882,-0.0056 -1.195721,0.07789 -1.875854,0.415495 -0.246381,0.122298 -0.455007,0.203482 -0.463614,0.18041 -0.0087,-0.02309 -0.4417,-0.785295 -0.962432,-1.693824 l -0.946782,-1.651871 1.522389,-0.03388 c 1.587146,-0.03532 1.947252,-0.07717 2.695822,-0.3133 1.74373,-0.55004 3.21876,-1.954748 3.863079,-3.678903 0.203712,-0.545122 0.367065,-1.401409 0.367065,-1.924119 0,-1.182663 0.195911,-2.478955 0.437046,-2.891835 0.340209,-0.582517 0.701358,0.327152 0.798219,2.010566 0.08306,1.443595 0.148164,1.935422 0.331443,2.503995 0.298396,0.925692 0.723191,1.647448 1.373065,2.33293 0.901697,0.951105 1.960412,1.539764 3.247747,1.805791 0.794269,0.164136 2.057116,0.125077 2.821801,-0.08728 2.254096,-0.625965 3.928326,-2.415631 4.399097,-4.702406 0.05014,-0.243533 0.113346,-0.923879 0.140466,-1.511882 0.05326,-1.154936 0.15743,-1.796466 0.366776,-2.259 0.170288,-0.376248 0.305714,-0.392449 0.468097,-0.056 0.239852,0.49696 0.398842,1.449227 0.399424,2.392345 0.0017,2.969329 1.834156,5.364692 4.675308,6.111958 0.441958,0.116243 0.624517,0.132058 1.483883,0.12856 0.871857,-0.0035 1.03986,-0.02008 1.523409,-0.149899 2.183193,-0.586115 3.846193,-2.272355 4.407775,-4.469366 0.08743,-0.34207 0.135242,-0.772241 0.173787,-1.563789 0.06025,-1.237149 0.164871,-1.897558 0.375231,-2.368548 0.114504,-0.256359 0.1686,-0.321185 0.256995,-0.307977 0.298035,0.04454 0.527523,0.950619 0.5999,2.368547 0.06753,1.323008 0.130881,1.768724 0.342197,2.407814 0.766769,2.318904 2.804681,3.939394 5.245197,4.170827 0.329153,0.03122 1.22211,0.05678 1.984351,0.0568 0.762243,2.5e-5 1.385893,0.01586 1.385893,0.03522 0,0.03646 -1.893791,3.319554 -1.958596,3.395447 -0.02013,0.0236 -0.261736,-0.07044 -0.536891,-0.20895 -0.726167,-0.36553 -1.091282,-0.449583 -1.928167,-0.443875 -0.596553,0.0041 -0.766121,0.02652 -1.147914,0.15194 -0.846727,0.278169 -1.587347,0.829574 -2.060547,1.53411 -0.232923,0.346799 -14.943447,25.803694 -15.19437,26.294207 l -0.108666,0.21242 z"
       style="opacity:1;fill:#17a2b8;fill-opacity:1;stroke:#3584e4;stroke-width:0.775651;stroke-linecap:round;stroke-linejoin:round;stroke-miterlimit:4;stroke-dasharray:none;stroke-opacity:0" />
    <path
       id="path1315"
       d="m 48.759987,69.610111 c -0.546935,-0.956294 -0.99443,-1.742784 -0.99443,-1.747757 0,-0.0049 0.08463,-0.05783 0.188077,-0.117509 0.556442,-0.32094 0.742428,-0.457138 1.064603,-0.77963 0.299849,-0.300146 0.536241,-0.628006 0.724881,-1.005375 0.03538,-0.07078 0.07457,-0.152746 0.08709,-0.182158 l 0.02276,-0.05347 0.01484,0.03367 c 0.04142,0.09396 0.166584,0.339551 0.215844,0.423497 0.178772,0.30464 0.400954,0.588563 0.647731,0.827723 0.272378,0.263971 0.47702,0.415501 0.880754,0.652165 0.11654,0.06831 0.211085,0.127884 0.210106,0.132374 -0.0017,0.0081 -2.057494,3.544846 -2.064379,3.551733 -0.0019,0.0019 -0.450948,-0.77897 -0.997887,-1.735265 z"
       style="opacity:1;fill:#17a2b8;fill-opacity:1;stroke:#3584e4;stroke-width:0.137117;stroke-linecap:round;stroke-linejoin:round;stroke-miterlimit:4;stroke-dasharray:none;stroke-opacity:0" />
  </g>
</svg>
